<svg width="156" height="47" viewBox="0 0 156 47" fill="none" xmlns="http://www.w3.org/2000/svg">
<g clip-path="url(#clip0_15_9018)">
<path d="M53.0173 45.8083C53.1435 45.9407 53.2099 46.108 53.2099 46.3066C53.2099 46.5052 53.1468 46.6725 53.0173 46.8014C52.8911 46.9338 52.7316 46.9965 52.539 46.9965C52.3464 46.9965 52.1902 46.9303 52.0673 46.8014C51.9445 46.6725 51.8813 46.5052 51.8813 46.3066C51.8813 46.108 51.9445 45.9407 52.0673 45.8083C52.1902 45.6759 52.3497 45.6062 52.539 45.6062C52.7283 45.6062 52.8878 45.6724 53.0173 45.8083Z" fill="#F5F6FF"/>
<path d="M98.2791 45.8083C98.4053 45.9407 98.4717 46.108 98.4717 46.3066C98.4717 46.5052 98.4086 46.6725 98.2791 46.8014C98.1529 46.9338 97.9935 46.9965 97.8041 46.9965C97.6148 46.9965 97.4554 46.9303 97.3325 46.8014C97.2063 46.6725 97.1465 46.5052 97.1465 46.3066C97.1465 46.108 97.2096 45.9407 97.3325 45.8083C97.4554 45.6759 97.6148 45.6062 97.8041 45.6062C97.9935 45.6062 98.1529 45.6724 98.2791 45.8083Z" fill="#F5F6FF"/>
<path d="M0.993123 41.8742V46.8955H0V39.6754H1.06287L2.7834 44.1392L4.49396 39.6754H5.50702V46.8955H4.51389V41.8742L2.9993 45.763H2.49775L0.993123 41.8742Z" fill="#F5F6FF"/>
<path d="M6.89199 46.8955V39.6754H10.4792V40.6546H7.94158V42.6965H10.0839V43.613H7.94158V45.9128H10.5257V46.892H6.88867L6.89199 46.8955Z" fill="#F5F6FF"/>
<path d="M14.5878 44.3169H15.6108V44.6688C15.6108 45.3831 15.4148 45.9511 15.0196 46.3693C14.6276 46.7874 14.1095 47 13.4651 47C12.8207 47 12.2959 46.7944 11.9073 46.3867C11.5187 45.979 11.3228 45.4145 11.3228 44.7002V41.916C11.3228 41.2016 11.522 40.6337 11.9239 40.2085C12.3225 39.7869 12.8473 39.5743 13.4983 39.5743C14.1493 39.5743 14.6542 39.7799 15.0362 40.1911C15.4181 40.6023 15.6108 41.1668 15.6108 41.8811V42.1494H14.5878V41.8916C14.5878 41.4734 14.4914 41.1459 14.2988 40.9124C14.1062 40.679 13.8338 40.5605 13.4884 40.5605C13.1429 40.5605 12.8706 40.679 12.6713 40.9124C12.4753 41.1459 12.3757 41.4734 12.3757 41.8916V44.6758C12.3757 45.0939 12.4753 45.4215 12.6713 45.6549C12.8672 45.8884 13.1396 46.0069 13.4884 46.0069C13.8371 46.0069 14.1062 45.8884 14.2988 45.6549C14.4914 45.4215 14.5878 45.0939 14.5878 44.6758V44.3134V44.3169Z" fill="#F5F6FF"/>
<path d="M20.1649 43.6269H17.9528V46.8955H16.8999V39.6754H17.9528V42.6129H20.1649V39.6754H21.2278V46.8955H20.1649V43.6269Z" fill="#F5F6FF"/>
<path d="M23.6059 41.8742V46.8955H22.6128V39.6754H23.6757L25.3962 44.1392L27.1068 39.6754H28.1198V46.8955H27.1267V41.8742L25.6121 45.763H25.1105L23.6059 41.8742Z" fill="#F5F6FF"/>
<path d="M29.5048 46.8955V39.6754H33.092V40.6546H30.5544V42.6965H32.6967V43.613H30.5544V45.9128H33.1385V46.892H29.5015L29.5048 46.8955Z" fill="#F5F6FF"/>
<path d="M37.2006 44.3169H38.2236V44.6688C38.2236 45.3831 38.0276 45.9511 37.6324 46.3693C37.2404 46.7874 36.7223 47 36.0779 47C35.4335 47 34.9087 46.7944 34.5201 46.3867C34.1315 45.979 33.9355 45.4145 33.9355 44.7002V41.916C33.9355 41.2016 34.1348 40.6337 34.5367 40.2085C34.9353 39.7869 35.4601 39.5743 36.1111 39.5743C36.7621 39.5743 37.267 39.7799 37.649 40.1911C38.0309 40.6023 38.2236 41.1668 38.2236 41.8811V42.1494H37.2006V41.8916C37.2006 41.4734 37.1042 41.1459 36.9116 40.9124C36.7189 40.679 36.4466 40.5605 36.1012 40.5605C35.7557 40.5605 35.4834 40.679 35.2841 40.9124C35.0881 41.1459 34.9885 41.4734 34.9885 41.8916V44.6758C34.9885 45.0939 35.0881 45.4215 35.2841 45.6549C35.48 45.8884 35.7524 46.0069 36.1012 46.0069C36.4499 46.0069 36.7189 45.8884 36.9116 45.6549C37.1042 45.4215 37.2006 45.0939 37.2006 44.6758V44.3134V44.3169Z" fill="#F5F6FF"/>
<path d="M42.7772 43.6269H40.5651V46.8955H39.5122V39.6754H40.5651V42.6129H42.7772V39.6754H43.8401V46.8955H42.7772V43.6269Z" fill="#F5F6FF"/>
<path d="M45.2255 46.8955V39.6754H48.8127V40.6546H46.2751V42.6965H48.4174V43.613H46.2751V45.9128H48.8592V46.892H45.2222L45.2255 46.8955Z" fill="#F5F6FF"/>
<path d="M56.5414 41.4108C56.5414 40.8672 56.7241 40.4246 57.0861 40.0866C57.4482 39.7451 57.9032 39.5779 58.4479 39.5779C58.7502 39.5779 59.0259 39.6301 59.2783 39.7312C59.5307 39.8357 59.7267 39.9612 59.8695 40.111C60.009 40.2609 60.1286 40.4142 60.2249 40.564C60.3213 40.7139 60.3844 40.8428 60.4176 40.9438L60.4674 41.0972L59.6038 41.4491C59.5972 41.4212 59.5872 41.3864 59.5706 41.3446C59.554 41.3027 59.5141 41.2296 59.4544 41.1215C59.3912 41.0135 59.3248 40.9194 59.2484 40.8393C59.172 40.7557 59.0657 40.6825 58.9296 40.6128C58.7934 40.5431 58.6439 40.5083 58.4878 40.5083C58.232 40.5083 58.0228 40.5849 57.86 40.7348C57.6973 40.8846 57.6143 41.0797 57.6143 41.3132C57.6143 41.5955 57.7073 41.8429 57.8933 42.0554C58.0793 42.268 58.3815 42.5049 58.8033 42.7663C59.8662 43.4179 60.3943 44.1706 60.3943 45.0243C60.3943 45.6376 60.205 46.1184 59.8297 46.4669C59.4544 46.8188 58.9727 46.9931 58.3882 46.9931C58.066 46.9931 57.7737 46.9338 57.508 46.8119C57.2422 46.6899 57.033 46.547 56.8835 46.3728C56.7341 46.1986 56.6045 46.0278 56.5016 45.8571C56.3953 45.6863 56.3288 45.54 56.2956 45.425L56.2358 45.2403L57.0994 44.8884L57.1492 45.0173C57.1692 45.0696 57.2157 45.1602 57.2921 45.2961C57.3685 45.432 57.4482 45.5504 57.5379 45.6515C57.6275 45.756 57.7471 45.8466 57.8966 45.9303C58.046 46.0139 58.2055 46.0557 58.3682 46.0557C58.6638 46.0557 58.8997 45.9686 59.0757 45.7979C59.2517 45.6271 59.3414 45.4006 59.3414 45.1184C59.3414 44.8082 59.2418 44.5399 59.0425 44.3134C58.8432 44.0869 58.5243 43.8395 58.0826 43.5712C57.0596 42.9405 56.5481 42.2157 56.5481 41.4073L56.5414 41.4108Z" fill="#F5F6FF"/>
<path d="M61.5536 46.8955V39.6754H65.1408V40.6546H62.6032V42.6965H64.7456V43.613H62.6032V45.9128H65.1873V46.892H61.5503L61.5536 46.8955Z" fill="#F5F6FF"/>
<path d="M69.2528 44.3169H70.2758V44.6688C70.2758 45.3831 70.0799 45.9511 69.6846 46.3693C69.2927 46.7874 68.7745 47 68.1301 47C67.4858 47 66.961 46.7944 66.5724 46.3867C66.1838 45.979 65.9878 45.4145 65.9878 44.7002V41.916C65.9878 41.2016 66.1871 40.6337 66.589 40.2085C66.9876 39.7869 67.5124 39.5743 68.1634 39.5743C68.8144 39.5743 69.3192 39.7799 69.7012 40.1911C70.0832 40.6023 70.2758 41.1668 70.2758 41.8811V42.1494H69.2528V41.8916C69.2528 41.4734 69.1565 41.1459 68.9638 40.9124C68.7712 40.679 68.4988 40.5605 68.1534 40.5605C67.808 40.5605 67.5356 40.679 67.3363 40.9124C67.1403 41.1459 67.0407 41.4734 67.0407 41.8916V44.6758C67.0407 45.0939 67.1403 45.4215 67.3363 45.6549C67.5323 45.8884 67.8046 46.0069 68.1534 46.0069C68.5022 46.0069 68.7712 45.8884 68.9638 45.6549C69.1565 45.4215 69.2528 45.0939 69.2528 44.6758V44.3134V44.3169Z" fill="#F5F6FF"/>
<path d="M74.7863 39.6754H75.8392V44.6653C75.8392 45.3797 75.6366 45.9477 75.2347 46.3658C74.8328 46.784 74.3047 46.9965 73.657 46.9965C73.0093 46.9965 72.4878 46.7909 72.0992 46.3832C71.7106 45.9755 71.5146 45.411 71.5146 44.6967V39.6754H72.5775V44.6758C72.5775 45.0939 72.6772 45.4215 72.8731 45.655C73.0691 45.8884 73.3415 46.0069 73.6902 46.0069C74.039 46.0069 74.308 45.8884 74.5007 45.655C74.6933 45.4215 74.7896 45.0939 74.7896 44.6758V39.6754H74.7863Z" fill="#F5F6FF"/>
<path d="M80.4099 46.8955L79.2806 44.1217C79.2341 44.1287 79.1378 44.1322 78.995 44.1322H78.2277V46.8955H77.1748V39.6754H79.181C79.8552 39.6754 80.4033 39.888 80.8218 40.3096C81.2403 40.7312 81.4495 41.2644 81.4495 41.9021C81.4495 42.3272 81.3433 42.7105 81.1307 43.052C80.9181 43.3935 80.6291 43.6478 80.2605 43.8186L81.5957 46.892H80.4066L80.4099 46.8955ZM78.2277 43.2645H79.0813C79.4733 43.2645 79.7921 43.1391 80.0346 42.8882C80.2771 42.6373 80.3966 42.3237 80.3966 41.9439C80.3966 41.5641 80.2771 41.2609 80.0379 41.01C79.7988 40.7591 79.4832 40.6337 79.0913 40.6337H78.2277V43.2645Z" fill="#F5F6FF"/>
<path d="M82.645 39.6754H83.7378V46.8955H82.645V39.6754Z" fill="#F5F6FF"/>
<path d="M87.2916 40.6859V46.8955H86.2288V40.6859H84.6743V39.6754H88.8527V40.6859H87.2883H87.2916Z" fill="#F5F6FF"/>
<path d="M91.3143 44.1113L89.2583 39.6754H90.4474L91.8623 42.9962L93.2873 39.6754H94.4166L92.3606 44.1113V46.8955H91.3077V44.1113H91.3143Z" fill="#F5F6FF"/>
<path d="M103.936 39.6754C104.65 39.6754 105.208 39.8879 105.607 40.313C106.005 40.7382 106.208 41.348 106.208 42.139V44.4074C106.208 45.1914 106.002 45.8013 105.593 46.2368C105.185 46.6724 104.623 46.8919 103.906 46.8919H101.88V39.6719H103.936V39.6754ZM102.933 45.9128H103.896C104.295 45.9128 104.603 45.7838 104.819 45.526C105.035 45.2681 105.145 44.8987 105.145 44.4179V42.1494C105.145 41.6685 105.035 41.2992 104.819 41.0413C104.603 40.7835 104.295 40.6545 103.896 40.6545H102.933V45.9128Z" fill="#F5F6FF"/>
<path d="M107.546 39.6754H108.639V46.8955H107.546V39.6754Z" fill="#F5F6FF"/>
<path d="M109.994 41.4108C109.994 40.8672 110.177 40.4246 110.539 40.0866C110.901 39.7486 111.356 39.5779 111.901 39.5779C112.203 39.5779 112.479 39.6301 112.731 39.7312C112.983 39.8357 113.179 39.9612 113.322 40.111C113.462 40.2609 113.581 40.4142 113.678 40.564C113.774 40.7139 113.837 40.8428 113.87 40.9438L113.92 41.0972L113.056 41.4491C113.05 41.4212 113.04 41.3864 113.023 41.3446C113.007 41.3027 112.967 41.2296 112.904 41.1215C112.841 41.0135 112.774 40.9194 112.698 40.8393C112.621 40.7557 112.515 40.6825 112.379 40.6128C112.243 40.5431 112.093 40.5083 111.937 40.5083C111.681 40.5083 111.472 40.5849 111.309 40.7348C111.147 40.8846 111.064 41.0797 111.064 41.3132C111.064 41.5955 111.157 41.8429 111.343 42.0554C111.529 42.268 111.831 42.5049 112.253 42.7663C113.316 43.4179 113.844 44.1706 113.844 45.0243C113.844 45.6376 113.654 46.1184 113.279 46.4669C112.904 46.8188 112.422 46.9931 111.841 46.9931C111.519 46.9931 111.226 46.9338 110.961 46.8119C110.695 46.6934 110.486 46.547 110.336 46.3728C110.187 46.2021 110.057 46.0278 109.954 45.8571C109.848 45.6863 109.781 45.54 109.748 45.425L109.688 45.2403L110.552 44.8884L110.602 45.0173C110.622 45.0696 110.668 45.1602 110.745 45.2961C110.821 45.4285 110.901 45.5504 110.99 45.6515C111.08 45.756 111.2 45.8466 111.349 45.9303C111.499 46.0139 111.658 46.0557 111.821 46.0557C112.116 46.0557 112.352 45.9686 112.528 45.7979C112.704 45.6271 112.794 45.4006 112.794 45.1184C112.794 44.8082 112.694 44.5399 112.495 44.3134C112.296 44.0869 111.977 43.8395 111.539 43.5712C110.516 42.9405 110.004 42.2157 110.004 41.4073L109.994 41.4108Z" fill="#F5F6FF"/>
<path d="M117.132 40.6859V46.8955H116.069V40.6859H114.515V39.6754H118.693V40.6859H117.129H117.132Z" fill="#F5F6FF"/>
<path d="M122.825 46.8955L121.696 44.1217C121.649 44.1287 121.556 44.1322 121.41 44.1322H120.643V46.8955H119.59V39.6754H121.596C122.27 39.6754 122.818 39.888 123.237 40.3096C123.655 40.7312 123.865 41.2644 123.865 41.9021C123.865 42.3272 123.758 42.7105 123.546 43.052C123.333 43.3935 123.044 43.6478 122.676 43.8186L124.014 46.892H122.825V46.8955ZM120.643 43.2645H121.5C121.892 43.2645 122.211 43.1391 122.453 42.8882C122.695 42.6373 122.815 42.3237 122.815 41.9439C122.815 41.5641 122.695 41.2609 122.456 41.01C122.217 40.7591 121.902 40.6337 121.506 40.6337H120.643V43.2645Z" fill="#F5F6FF"/>
<path d="M125.057 39.6754H126.15V46.8955H125.057V39.6754Z" fill="#F5F6FF"/>
<path d="M127.582 39.6754H129.863C130.448 39.6754 130.916 39.8461 131.275 40.1876C131.634 40.5291 131.81 40.9612 131.81 41.4908C131.81 41.8567 131.72 42.1808 131.541 42.47C131.361 42.7592 131.112 42.9753 130.8 43.1181C131.162 43.261 131.444 43.4945 131.65 43.8081C131.856 44.1252 131.959 44.4876 131.959 44.9022C131.959 45.4737 131.763 45.9476 131.368 46.3239C130.976 46.7038 130.468 46.8919 129.843 46.8919H127.582V39.6719V39.6754ZM128.634 42.7488H129.648C129.983 42.7488 130.249 42.6477 130.448 42.4456C130.647 42.2435 130.747 41.9787 130.747 41.6581C130.747 41.3375 130.647 41.0692 130.448 40.8636C130.249 40.658 129.983 40.5535 129.657 40.5535H128.634V42.7488ZM128.634 46.0173H129.677C130.039 46.0173 130.332 45.9023 130.558 45.6723C130.783 45.4423 130.896 45.1496 130.896 44.7907C130.896 44.4318 130.783 44.1391 130.561 43.9091C130.338 43.6791 130.046 43.5641 129.687 43.5641H128.634V46.0173Z" fill="#F5F6FF"/>
<path d="M136.37 39.6754H137.423V44.6653C137.423 45.3797 137.221 45.9477 136.819 46.3658C136.417 46.784 135.889 46.9965 135.241 46.9965C134.593 46.9965 134.072 46.7909 133.683 46.3832C133.295 45.9755 133.099 45.411 133.099 44.6967V39.6754H134.162V44.6758C134.162 45.0939 134.261 45.4215 134.457 45.655C134.653 45.8884 134.925 46.0069 135.274 46.0069C135.623 46.0069 135.892 45.8884 136.085 45.655C136.277 45.4215 136.374 45.0939 136.374 44.6758V39.6754H136.37Z" fill="#F5F6FF"/>
<path d="M140.884 40.6859V46.8955H139.821V40.6859H138.267V39.6754H142.445V40.6859H140.881H140.884Z" fill="#F5F6FF"/>
<path d="M143.392 39.6754H144.484V46.8955H143.392V39.6754Z" fill="#F5F6FF"/>
<path d="M145.82 41.9648C145.82 41.2365 146.026 40.6546 146.434 40.2225C146.843 39.7904 147.381 39.5743 148.042 39.5743C148.703 39.5743 149.244 39.7869 149.643 40.2085C150.041 40.6302 150.244 41.2086 150.244 41.9369V44.6165C150.244 45.3448 150.038 45.9232 149.63 46.3553C149.221 46.7839 148.68 47 148.012 47C147.344 47 146.81 46.7909 146.414 46.3693C146.019 45.9511 145.82 45.3762 145.82 44.6479V41.9682V41.9648ZM146.873 44.627C146.873 45.0591 146.976 45.4006 147.182 45.6445C147.388 45.8884 147.67 46.0104 148.032 46.0104C148.394 46.0104 148.673 45.8884 148.876 45.6445C149.078 45.4006 149.181 45.0626 149.181 44.627V41.9473C149.181 41.5153 149.078 41.1738 148.876 40.9298C148.673 40.6859 148.391 40.564 148.032 40.564C147.673 40.564 147.388 40.6859 147.182 40.9298C146.976 41.1738 146.873 41.5118 146.873 41.9473V44.627Z" fill="#F5F6FF"/>
<path d="M152.506 41.686V46.8955H151.533V39.6754H152.566L154.984 44.7594V39.6754H155.957V46.8955H154.984L152.506 41.686Z" fill="#F5F6FF"/>
<path d="M103.381 7.68001H68.6253C67.4063 7.68001 66.8151 8.09119 66.8151 8.87871V11.4399C66.8151 12.2239 67.4063 12.6386 68.6253 12.6386H94.9181C101.216 12.6386 104.364 15.2799 104.364 20.5242V25.0262C104.364 30.3542 101.216 33.0373 94.9181 33.0373H60.1622V25.3573H94.9181C96.1006 25.3573 96.6885 24.9844 96.6885 24.2004V21.5173C96.6885 20.7332 96.0973 20.3186 94.9181 20.3186H68.6253C62.2879 20.3186 59.1392 17.963 59.1392 13.2553V8.05286C59.1392 2.68313 62.2879 0 68.6253 0H103.381V7.68001Z" fill="#F5F6FF"/>
<path d="M156 22.5452C156 29.5248 152.064 33.0338 144.152 33.0338H107.35V0H144.152C152.064 0 156 3.50897 156 10.5304V22.5487V22.5452ZM115.026 7.68001V25.3538H144.152C146.909 25.3538 148.284 24.4025 148.284 22.5452V10.5304C148.284 8.6313 146.906 7.68001 144.152 7.68001H115.026Z" fill="#F5F6FF"/>
<path d="M48.3971 0C43.7537 0 40.8407 1.73532 38.5555 6.44299L29.4248 25.3538H26.9071L17.6966 6.31754C15.4912 1.6935 12.7343 0 7.73551 0H0.0595703V7.6835H7.38011H7.77205C8.83492 7.6835 9.93765 8.63479 10.4093 9.62441L21.9813 33.0373H34.3007L45.8329 9.62441C46.3046 8.63479 47.3674 7.6835 48.4303 7.6835H48.8222V33.0373H56.1428V0H48.3871H48.3971Z" fill="#F5F6FF"/>
<path d="M7.32054 0H0V33.0338H7.32054V0Z" fill="#F5F6FF"/>
</g>
<defs>
<clipPath id="clip0_15_9018">
<rect width="156" height="47" fill="white"/>
</clipPath>
</defs>
</svg>
