<svg width="44" height="44" viewBox="0 0 44 44" fill="none" xmlns="http://www.w3.org/2000/svg">
<rect width="44" height="44" rx="22" fill="#FBE216" fill-opacity="0.19"/>
<g clip-path="url(#clip0_92_3393)">
<path opacity="0.32" fill-rule="evenodd" clip-rule="evenodd" d="M12 23V21C12 17.5 12 12 20 12H24C32 12 32 17.5 32 21L32 23C32 23.3948 32 23.8151 31.9885 24.25H28.5C26.807 24.25 25.6702 24.8259 24.7096 25.3382L24.6213 25.3854C23.7027 25.8758 23.0018 26.25 22 26.25C20.9982 26.25 20.2973 25.8758 19.3787 25.3854L19.2904 25.3382C18.3298 24.8259 17.193 24.25 15.5 24.25H12.0115C12 23.8151 12 23.3948 12 23Z" fill="#222C60"/>
<path fill-rule="evenodd" clip-rule="evenodd" d="M18.25 17C18.25 16.5858 18.5858 16.25 19 16.25H25C25.4142 16.25 25.75 16.5858 25.75 17C25.75 17.4142 25.4142 17.75 25 17.75H19C18.5858 17.75 18.25 17.4142 18.25 17Z" fill="#222C60"/>
<path fill-rule="evenodd" clip-rule="evenodd" d="M19.25 21C19.25 20.5858 19.5858 20.25 20 20.25H24C24.4142 20.25 24.75 20.5858 24.75 21C24.75 21.4142 24.4142 21.75 24 21.75H20C19.5858 21.75 19.25 21.4142 19.25 21Z" fill="#222C60"/>
<path fill-rule="evenodd" clip-rule="evenodd" d="M12.1094 25.75C12.4572 28.8149 13.9122 32 20.0001 32H24.0001C30.088 32 31.5431 28.8149 31.8909 25.75H28.5001C27.1931 25.75 26.33 26.1741 25.4156 26.6618L25.2641 26.7429C24.388 27.2126 23.3859 27.75 22.0001 27.75C20.6143 27.75 19.6123 27.2126 18.7362 26.7429L18.5847 26.6618C17.6703 26.1741 16.8072 25.75 15.5001 25.75H12.1094Z" fill="#222C60"/>
</g>
<defs>
<clipPath id="clip0_92_3393">
<rect width="24" height="24" fill="white" transform="translate(10 10)"/>
</clipPath>
</defs>
</svg>
