<svg width="65" height="65" viewBox="0 0 65 65" fill="none" xmlns="http://www.w3.org/2000/svg">
<rect x="0.5" y="0.387695" width="64" height="64" rx="32" fill="#FBE216"/>
<g clip-path="url(#clip0_152_3866)">
<path opacity="0.32" d="M22.5 31.3877V33.3877C22.5 36.8877 22.5 42.3877 30.5 42.3877H34.5C42.5 42.3877 42.5 36.8877 42.5 33.3877L42.5 31.3877C42.5 27.8877 42.5 22.3877 34.5 22.3877H30.5C22.5 22.3877 22.5 27.8877 22.5 31.3877Z" fill="#222C60"/>
<path fill-rule="evenodd" clip-rule="evenodd" d="M29.5 30.3877C28.9477 30.3877 28.5 29.94 28.5 29.3877L28.5 29.3867C28.5 28.8344 28.9477 28.3867 29.5 28.3867C30.0523 28.3867 30.5 28.8344 30.5 29.3867L30.5 29.3877C30.5 29.94 30.0523 30.3877 29.5 30.3877Z" fill="#222C60"/>
<path fill-rule="evenodd" clip-rule="evenodd" d="M35.5 36.3877C34.9477 36.3877 34.5 35.94 34.5 35.3877L34.5 35.3867C34.5 34.8344 34.9477 34.3867 35.5 34.3867C36.0523 34.3867 36.5 34.8344 36.5 35.3867L36.5 35.3877C36.5 35.94 36.0523 36.3877 35.5 36.3877Z" fill="#848484"/>
<path fill-rule="evenodd" clip-rule="evenodd" d="M36.0303 28.8574C36.3232 29.1503 36.3232 29.6251 36.0303 29.918L30.0303 35.918C29.7374 36.2109 29.2626 36.2109 28.9697 35.918C28.6768 35.6251 28.6768 35.1503 28.9697 34.8574L34.9697 28.8574C35.2626 28.5645 35.7374 28.5645 36.0303 28.8574Z" fill="#848484"/>
</g>
<defs>
<clipPath id="clip0_152_3866">
<rect width="24" height="24" fill="white" transform="translate(20.5 20.3877)"/>
</clipPath>
</defs>
</svg>
