<svg width="24" height="28" viewBox="0 0 24 28" fill="none" xmlns="http://www.w3.org/2000/svg">
<path d="M19.068 14.7918C19.0274 11.5012 21.7492 9.91683 21.8711 9.83558C20.3274 7.60121 17.9305 7.27621 17.118 7.27621C15.1274 7.07308 13.1774 8.49496 12.1617 8.49496C11.1055 8.49496 9.56175 7.31683 7.8555 7.35746C5.66175 7.39808 3.6305 8.65746 2.53362 10.6075C0.217999 14.5887 1.96487 20.4793 4.15862 23.7293C5.2555 25.3137 6.5555 27.0606 8.26175 27.02C9.92737 26.9387 10.5367 25.9637 12.5274 25.9637C14.518 25.9637 15.0867 27.02 16.793 26.9793C18.5805 26.9387 19.6774 25.395 20.7336 23.8106C21.993 21.9825 22.5211 20.195 22.5617 20.1137C22.5211 20.0325 19.1086 18.7325 19.068 14.7918Z" fill="#0A0D14"/>
<path d="M15.818 5.16375C16.7117 4.06687 17.3211 2.52312 17.1586 0.97937C15.8586 1.02 14.2742 1.87312 13.3399 2.97C12.5274 3.945 11.7961 5.48875 11.9586 6.99187C13.4211 7.07312 14.8836 6.26062 15.818 5.16375Z" fill="#0A0D14"/>
</svg>
