<svg width="25" height="24" viewBox="0 0 25 24" fill="none" xmlns="http://www.w3.org/2000/svg">
<path opacity="0.32" fill-rule="evenodd" clip-rule="evenodd" d="M6.75 12C6.75 11.5858 7.08579 11.25 7.5 11.25H18.5C18.9142 11.25 19.25 11.5858 19.25 12C19.25 12.4142 18.9142 12.75 18.5 12.75H7.5C7.08579 12.75 6.75 12.4142 6.75 12Z" fill="#222C60"/>
<path fill-rule="evenodd" clip-rule="evenodd" d="M13.0892 5.53601C13.3455 5.86144 13.2894 6.33299 12.964 6.58926L8.59679 10.0284L8.58284 10.0384C7.59265 10.7473 7.25 11.4413 7.25 12C7.25 12.5587 7.59265 13.2527 8.58284 13.9616L8.59679 13.9716L12.964 17.4108C13.2894 17.6671 13.3455 18.1386 13.0892 18.464C12.833 18.7895 12.3614 18.8455 12.036 18.5893L7.69536 15.171C6.49888 14.3101 5.75 13.2222 5.75 12C5.75 10.7779 6.49888 9.68997 7.69536 8.82905L12.036 5.4108C12.3614 5.15453 12.833 5.21059 13.0892 5.53601Z" fill="#222C60"/>
</svg>
