<svg width="45" height="44" viewBox="0 0 45 44" fill="none" xmlns="http://www.w3.org/2000/svg">
<rect x="0.5" width="44" height="44" rx="22" fill="#FBE216" fill-opacity="0.19"/>
<g clip-path="url(#clip0_99_3709)">
<path opacity="0.32" d="M12.5 22V24C12.5 27 12.5 31 19.5 31H25.5C32.5 31 32.5 27 32.5 24V22C32.5 19 32.5 15 27.5 15C25 15 25 13 22.5 13C20 13 20 15 17.5 15C12.5 15 12.5 19 12.5 22Z" fill="#222C60"/>
<path d="M18.5 23C18.5 25.2091 20.2909 27 22.5 27C24.7091 27 26.5 25.2091 26.5 23C26.5 20.7909 24.7091 19 22.5 19C20.2909 19 18.5 20.7909 18.5 23Z" fill="#222C60"/>
</g>
<defs>
<clipPath id="clip0_99_3709">
<rect width="24" height="24" fill="white" transform="translate(10.5 10)"/>
</clipPath>
</defs>
</svg>
