<svg width="9" height="15" viewBox="0 0 9 15" fill="none" xmlns="http://www.w3.org/2000/svg">
<path opacity="0.32" fill-rule="evenodd" clip-rule="evenodd" d="M8.32775 1.22986C8.58402 1.55528 8.52796 2.02684 8.20254 2.28311L3.83532 5.72229L3.82137 5.73228C2.83118 6.44117 2.48853 7.13518 2.48853 7.69388C2.48853 8.25258 2.83118 8.94659 3.82137 9.65548L3.83532 9.66546L8.20254 13.1047C8.52796 13.3609 8.58402 13.8325 8.32775 14.1579C8.07148 14.4833 7.59993 14.5394 7.27451 14.2831L2.93388 10.8649C1.7374 10.0039 0.988525 8.91603 0.988525 7.69388C0.988525 6.47173 1.7374 5.38382 2.93389 4.52289L7.27451 1.10465C7.59993 0.848383 8.07148 0.904441 8.32775 1.22986Z" fill="#D9DBE9"/>
</svg>
