<svg width="9" height="15" viewBox="0 0 9 15" fill="none" xmlns="http://www.w3.org/2000/svg">
<path opacity="0.32" fill-rule="evenodd" clip-rule="evenodd" d="M0.672035 1.22986C0.928304 0.904441 1.39986 0.848383 1.72528 1.10465L6.0659 4.52289C7.26238 5.38382 8.01126 6.47173 8.01126 7.69388C8.01126 8.91603 7.26238 10.0039 6.0659 10.8649L1.72528 14.2831C1.39986 14.5394 0.928304 14.4833 0.672035 14.1579C0.415765 13.8325 0.471824 13.3609 0.797245 13.1047L5.16447 9.66546L5.17842 9.65548C6.16861 8.94659 6.51126 8.25258 6.51126 7.69388C6.51126 7.13518 6.16861 6.44117 5.17842 5.73228L5.16447 5.72229L0.797245 2.28311C0.471824 2.02684 0.415765 1.55528 0.672035 1.22986Z" fill="#D9DBE9"/>
</svg>
