<svg width="34" height="41" viewBox="0 0 34 41" fill="none" xmlns="http://www.w3.org/2000/svg">
<rect x="-6.5" y="0.5" width="40" height="40" rx="20" fill="#FFF7B3"/>
<g clip-path="url(#clip0_201_111)">
<path opacity="0.32" fill-rule="evenodd" clip-rule="evenodd" d="M8.91527 15.9151C9.37442 14.292 10.0683 12.6152 10.9875 10.8182C7.48366 11.7249 4.72507 14.4835 3.81836 17.9874C5.61536 17.0682 7.2921 16.3743 8.91527 15.9151Z" fill="#222C60"/>
<path fill-rule="evenodd" clip-rule="evenodd" d="M16.8535 17.1465C15.7071 16.8807 14.6004 16.75 13.5 16.75C12.3996 16.75 11.2929 16.8807 10.1465 17.1465C9.88072 18.2929 9.75 19.3996 9.75 20.5C9.75 21.6004 9.88072 22.7071 10.1465 23.8535C11.2929 24.1193 12.3996 24.25 13.5 24.25C14.6004 24.25 15.7071 24.1193 16.8535 23.8535C17.1193 22.7071 17.25 21.6004 17.25 20.5C17.25 19.3996 17.1193 18.2929 16.8535 17.1465Z" fill="#222C60"/>
<path fill-rule="evenodd" clip-rule="evenodd" d="M3.52266 19.8214L4.33991 19.4059L4.34445 19.4036C5.83262 18.6342 7.2094 18.0366 8.51931 17.605C8.34047 18.5762 8.25 19.5361 8.25 20.5C8.25 21.4638 8.34047 22.4238 8.51931 23.395C7.2094 22.9634 5.83261 22.3658 4.34444 21.5964L4.33991 21.594L3.52266 21.1786C3.50763 20.9543 3.5 20.728 3.5 20.5C3.5 20.2719 3.50763 20.0457 3.52266 19.8214Z" fill="#222C60"/>
<path opacity="0.32" fill-rule="evenodd" clip-rule="evenodd" d="M8.91527 25.0848C7.2921 24.6257 5.61536 23.9318 3.81836 23.0126C4.72507 26.5165 7.48366 29.275 10.9875 30.1818C10.0683 28.3848 9.37442 26.708 8.91527 25.0848Z" fill="#848484"/>
<path fill-rule="evenodd" clip-rule="evenodd" d="M14.1786 10.5227C13.9543 10.5076 13.728 10.5 13.5 10.5C13.2719 10.5 13.0457 10.5076 12.8214 10.5227L12.4059 11.3399L12.4036 11.3444C11.6342 12.8326 11.0366 14.2094 10.605 15.5193C11.5762 15.3405 12.5361 15.25 13.5 15.25C14.4638 15.25 15.4238 15.3405 16.395 15.5193C15.9634 14.2094 15.3658 12.8326 14.5964 11.3444L14.5941 11.3399L14.1786 10.5227Z" fill="#848484"/>
<path opacity="0.32" fill-rule="evenodd" clip-rule="evenodd" d="M23.1819 17.9874C21.3849 17.0682 19.7081 16.3743 18.085 15.9151C17.6258 14.292 16.9319 12.6152 16.0127 10.8182C19.5166 11.7249 22.2752 14.4835 23.1819 17.9874Z" fill="#848484"/>
<path fill-rule="evenodd" clip-rule="evenodd" d="M18.4805 17.605C19.7904 18.0366 21.1672 18.6342 22.6553 19.4036L22.6599 19.4059L23.4771 19.8214C23.4921 20.0457 23.4998 20.2719 23.4998 20.5C23.4998 20.728 23.4921 20.9543 23.4771 21.1785L22.6599 21.5941L22.6553 21.5964C21.1672 22.3657 19.7904 22.9634 18.4805 23.395C18.6593 22.4238 18.7498 21.4638 18.7498 20.5C18.7498 19.5361 18.6593 18.5762 18.4805 17.605Z" fill="#848484"/>
<path opacity="0.32" fill-rule="evenodd" clip-rule="evenodd" d="M16.0127 30.1818C16.9319 28.3848 17.6258 26.708 18.085 25.0848C19.7081 24.6257 21.3849 23.9318 23.1819 23.0126C22.2752 26.5165 19.5166 29.275 16.0127 30.1818Z" fill="#848484"/>
<path fill-rule="evenodd" clip-rule="evenodd" d="M13.5 25.75C12.5361 25.75 11.5762 25.6595 10.605 25.4807C11.0366 26.7906 11.6342 28.1674 12.4036 29.6556L12.4059 29.6601L12.8214 30.4774C13.0457 30.4924 13.2719 30.5 13.5 30.5C13.728 30.5 13.9543 30.4924 14.1786 30.4774L14.5941 29.6601L14.5964 29.6556C15.3658 28.1674 15.9634 26.7906 16.395 25.4807C15.4238 25.6595 14.4638 25.75 13.5 25.75Z" fill="#848484"/>
</g>
<defs>
<clipPath id="clip0_201_111">
<rect width="24" height="24" fill="white" transform="translate(1.5 8.5)"/>
</clipPath>
</defs>
</svg>
