<svg width="41" height="41" viewBox="0 0 41 41" fill="none" xmlns="http://www.w3.org/2000/svg">
<rect x="0.5" y="0.5" width="40" height="40" rx="20" fill="#FFF7B3"/>
<g clip-path="url(#clip0_201_295)">
<path opacity="0.32" d="M10.5 19.5V21.5C10.5 24 10.5 28.5 16.4999 28.5H20.5C26.5 28.5 26.5 24 26.5 21.5V19.5C26.5 17 26.5 12.5 20.5 12.5H16.4999C10.5001 12.5 10.5 17 10.5 19.5Z" fill="#222C60"/>
<path d="M14.5 18.5C14.5 19.6046 15.3954 20.5 16.5 20.5C17.6046 20.5 18.5 19.6046 18.5 18.5C18.5 17.3954 17.6046 16.5 16.5 16.5C15.3954 16.5 14.5 17.3954 14.5 18.5Z" fill="#222C60"/>
<path fill-rule="evenodd" clip-rule="evenodd" d="M27.6026 24.0296C27.7503 23.1238 27.7503 22.2273 27.7503 21.5V19.5C27.7503 18.7727 27.7503 17.8761 27.6025 16.9703C28.6302 16.0347 30.5003 16.566 30.5003 18.4999V22.4999C30.5003 24.4339 28.6302 24.9653 27.6026 24.0296Z" fill="#222C60"/>
</g>
<defs>
<clipPath id="clip0_201_295">
<rect width="24" height="24" fill="white" transform="translate(8.5 8.5)"/>
</clipPath>
</defs>
</svg>
