<svg width="21" height="37" viewBox="0 0 21 37" fill="none" xmlns="http://www.w3.org/2000/svg">
<path d="M0 5.25C0 2.766 2.058 0.75 4.59375 0.75H16.4062C18.942 0.75 21 2.766 21 5.25V32.25C21 33.4435 20.516 34.5881 19.6545 35.432C18.793 36.2759 17.6246 36.75 16.4062 36.75H4.59375C3.37541 36.75 2.20697 36.2759 1.34548 35.432C0.483983 34.5881 0 33.4435 0 32.25V5.25ZM7.875 29.0357C7.5269 29.0357 7.19306 29.1712 6.94692 29.4123C6.70078 29.6534 6.5625 29.9804 6.5625 30.3214C6.5625 30.6624 6.70078 30.9894 6.94692 31.2306C7.19306 31.4717 7.5269 31.6071 7.875 31.6071H13.125C13.4731 31.6071 13.8069 31.4717 14.0531 31.2306C14.2992 30.9894 14.4375 30.6624 14.4375 30.3214C14.4375 29.9804 14.2992 29.6534 14.0531 29.4123C13.8069 29.1712 13.4731 29.0357 13.125 29.0357H7.875Z" fill="#1E2644"/>
</svg>
