<svg width="16" height="17" viewBox="0 0 16 17" fill="none" xmlns="http://www.w3.org/2000/svg">
<path opacity="0.4" d="M13.3284 13.3022H9.53221C9.16184 13.3022 8.8606 13.6083 8.8606 13.9845C8.8606 14.3615 9.16184 14.6667 9.53221 14.6667H13.3284C13.6988 14.6667 14 14.3615 14 13.9845C14 13.6083 13.6988 13.3022 13.3284 13.3022Z" fill="#515151"/>
<path d="M6.87268 5.26907L10.4699 8.1758C10.5567 8.24531 10.5715 8.37288 10.5038 8.46174L6.23916 14.0186C5.97108 14.3619 5.57601 14.5561 5.15272 14.5633L2.82464 14.592C2.70048 14.5934 2.59183 14.5074 2.56361 14.3841L2.0345 12.0837C1.94279 11.6609 2.0345 11.2237 2.30259 10.8869L6.58837 5.30347C6.65751 5.21389 6.7852 5.19812 6.87268 5.26907Z" fill="#515151"/>
<path opacity="0.4" d="M12.0804 6.44346L11.3869 7.30917C11.317 7.39732 11.1915 7.41166 11.1047 7.34142C10.2616 6.65917 8.10287 4.9084 7.50391 4.42323C7.41643 4.35157 7.40444 4.224 7.47499 4.13514L8.14378 3.30454C8.7505 2.5234 9.80871 2.45173 10.6623 3.13255L11.643 3.91369C12.0451 4.22902 12.3132 4.64467 12.4049 5.08183C12.5107 5.5627 12.3978 6.03497 12.0804 6.44346Z" fill="#515151"/>
</svg>
