<svg width="24" height="24" viewBox="0 0 24 24" fill="none" xmlns="http://www.w3.org/2000/svg">
<g clip-path="url(#clip0_116_64)">
<path opacity="0.32" d="M2 11V13C2 16 2 21 9 21H15C22 21 22 16 22 13V11C22 8 22 3 15 3H9C2 3 2 8 2 11Z" fill="#14142B"/>
<path fill-rule="evenodd" clip-rule="evenodd" d="M5.39749 7.55348C5.64412 7.22069 6.11383 7.15086 6.44662 7.39749C6.49018 7.42977 6.53353 7.46191 6.57667 7.4939C7.61442 8.26327 8.53254 8.94396 9.42539 9.44505C10.3482 9.96295 11.1791 10.25 12 10.25C12.821 10.25 13.6519 9.96295 14.5747 9.44505C15.4676 8.94396 16.3857 8.26327 17.4234 7.4939C17.4666 7.46192 17.5099 7.42978 17.5535 7.39749C17.8863 7.15086 18.356 7.22069 18.6026 7.55348C18.8492 7.88626 18.7794 8.35597 18.4466 8.60261C18.3923 8.64287 18.338 8.68312 18.2838 8.72332C17.2762 9.47061 16.2874 10.2039 15.3088 10.7531C14.2705 11.3359 13.1791 11.75 12 11.75C10.821 11.75 9.7296 11.3359 8.69127 10.7531C7.71274 10.2039 6.72392 9.47061 5.71629 8.72332C5.66208 8.68312 5.6078 8.64287 5.55348 8.60261C5.22069 8.35597 5.15086 7.88626 5.39749 7.55348Z" fill="#848484"/>
</g>
<defs>
<clipPath id="clip0_116_64">
<rect width="24" height="24" fill="white"/>
</clipPath>
</defs>
</svg>
