<svg width="49" height="49" viewBox="0 0 49 49" fill="none" xmlns="http://www.w3.org/2000/svg">
<rect x="0.5" y="0.5" width="48" height="48" rx="24" fill="#222C60"/>
<g clip-path="url(#clip0_96_3775)">
<path opacity="0.32" fill-rule="evenodd" clip-rule="evenodd" d="M14.25 17.5C14.25 17.0858 14.5681 16.75 14.9605 16.75L22.5395 16.75C22.9319 16.75 23.25 17.0858 23.25 17.5C23.25 17.9142 22.9319 18.25 22.5395 18.25L14.9605 18.25C14.5681 18.25 14.25 17.9142 14.25 17.5Z" fill="#FCFCFC"/>
<path opacity="0.32" fill-rule="evenodd" clip-rule="evenodd" d="M14.25 31.5C14.25 31.0858 14.5681 30.75 14.9605 30.75L22.5395 30.75C22.9319 30.75 23.25 31.0858 23.25 31.5C23.25 31.9142 22.9319 32.25 22.5395 32.25L14.9605 32.25C14.5681 32.25 14.25 31.9142 14.25 31.5Z" fill="#FCFCFC"/>
<path opacity="0.32" fill-rule="evenodd" clip-rule="evenodd" d="M25.75 24.5C25.75 24.0858 26.0681 23.75 26.4605 23.75L34.0395 23.75C34.4319 23.75 34.75 24.0858 34.75 24.5C34.75 24.9142 34.4319 25.25 34.0395 25.25L26.4605 25.25C26.0681 25.25 25.75 24.9142 25.75 24.5Z" fill="#FCFCFC"/>
<path opacity="0.32" fill-rule="evenodd" clip-rule="evenodd" d="M29.75 17.5C29.75 17.0858 30.1231 16.75 30.5833 16.75L33.9167 16.75C34.3769 16.75 34.75 17.0858 34.75 17.5C34.75 17.9142 34.3769 18.25 33.9167 18.25L30.5833 18.25C30.1231 18.25 29.75 17.9142 29.75 17.5Z" fill="#FCFCFC"/>
<path opacity="0.32" fill-rule="evenodd" clip-rule="evenodd" d="M29.75 31.5C29.75 31.0858 30.1231 30.75 30.5833 30.75L33.9167 30.75C34.3769 30.75 34.75 31.0858 34.75 31.5C34.75 31.9142 34.3769 32.25 33.9167 32.25L30.5833 32.25C30.1231 32.25 29.75 31.9142 29.75 31.5Z" fill="#FCFCFC"/>
<path opacity="0.32" fill-rule="evenodd" clip-rule="evenodd" d="M14.25 24.5C14.25 24.0858 14.6231 23.75 15.0833 23.75L18.4167 23.75C18.8769 23.75 19.25 24.0858 19.25 24.5C19.25 24.9142 18.8769 25.25 18.4167 25.25L15.0833 25.25C14.6231 25.25 14.25 24.9142 14.25 24.5Z" fill="#FCFCFC"/>
<path d="M28.5 14.5C26.8431 14.5 25.5 15.8431 25.5 17.5C25.5 19.1569 26.8431 20.5 28.5 20.5C30.1569 20.5 31.5 19.1569 31.5 17.5C31.5 15.8431 30.1569 14.5 28.5 14.5Z" fill="#FCFCFC"/>
<path d="M28.5 28.5C26.8431 28.5 25.5 29.8431 25.5 31.5C25.5 33.1569 26.8431 34.5 28.5 34.5C30.1569 34.5 31.5 33.1569 31.5 31.5C31.5 29.8431 30.1569 28.5 28.5 28.5Z" fill="#FCFCFC"/>
<path d="M20.5 21.5C18.8431 21.5 17.5 22.8431 17.5 24.5C17.5 26.1569 18.8431 27.5 20.5 27.5C22.1569 27.5 23.5 26.1569 23.5 24.5C23.5 22.8431 22.1569 21.5 20.5 21.5Z" fill="#FCFCFC"/>
</g>
<defs>
<clipPath id="clip0_96_3775">
<rect width="24" height="24" fill="white" transform="translate(12.5 12.5)"/>
</clipPath>
</defs>
</svg>
