<svg width="97" height="95" viewBox="0 0 97 95" fill="none" xmlns="http://www.w3.org/2000/svg">
<rect x="0.5" width="96" height="95" rx="47.5" fill="#F1FCFF"/>
<g clip-path="url(#clip0_15_10233)">
<path opacity="0.32" d="M66.125 45.324C66.125 58.3796 52.9062 67.0833 48.5 67.0833C44.0938 67.0833 30.875 58.3796 30.875 45.324C30.875 34.4444 39.6875 27.9166 48.5 27.9166C57.3125 27.9166 66.125 34.4444 66.125 45.324Z" fill="#B1BDFF"/>
<path d="M40.6666 45.5417C40.6666 49.8679 44.1737 53.375 48.5 53.375C52.8262 53.375 56.3333 49.8679 56.3333 45.5417C56.3333 41.2155 52.8262 37.7084 48.5 37.7084C44.1737 37.7084 40.6666 41.2155 40.6666 45.5417Z" fill="#B1BDFF"/>
</g>
<defs>
<clipPath id="clip0_15_10233">
<rect width="47" height="47" fill="white" transform="translate(25 24)"/>
</clipPath>
</defs>
</svg>
