<svg width="24" height="25" viewBox="0 0 24 25" fill="none" xmlns="http://www.w3.org/2000/svg">
<g clip-path="url(#clip0_132_151)">
<path opacity="0.32" d="M3.57007 14.8214L3.57007 16.9286C3.57007 19.0357 3.57007 23.25 9.8915 23.25H14.1058C20.4272 23.25 20.4272 19.0357 20.4272 16.9286L20.4272 14.8214C20.4272 12.7143 20.4272 8.5 14.1058 8.5H9.8915C3.57007 8.5 3.57007 12.7143 3.57007 14.8214Z" fill="#6E7191"/>
<path d="M12 12.5C10.8954 12.5 10 13.3954 10 14.5C10 15.6046 10.8954 16.5 12 16.5C13.1046 16.5 14 15.6046 14 14.5C14 13.3954 13.1046 12.5 12 12.5Z" fill="#6E7191"/>
<path fill-rule="evenodd" clip-rule="evenodd" d="M12 13.75C12.4142 13.75 12.75 14.0858 12.75 14.5L12.75 18.5C12.75 18.9142 12.4142 19.25 12 19.25C11.5858 19.25 11.25 18.9142 11.25 18.5L11.25 14.5C11.25 14.0858 11.5858 13.75 12 13.75Z" fill="#6E7191"/>
<path fill-rule="evenodd" clip-rule="evenodd" d="M8.71783 4.34283C8.0786 4.98205 7.75 5.89746 7.75 6.99999V9.5C7.75 9.91421 7.41421 10.25 7 10.25C6.58579 10.25 6.25 9.91421 6.25 9.5V6.99999C6.25 5.60253 6.6714 4.26794 7.65717 3.28217C8.64552 2.29382 10.1071 1.75 12 1.75C13.8929 1.75 15.3545 2.29382 16.3428 3.28217C17.3286 4.26794 17.75 5.60253 17.75 6.99999V9.5C17.75 9.91421 17.4142 10.25 17 10.25C16.5858 10.25 16.25 9.91421 16.25 9.5V6.99999C16.25 5.89746 15.9214 4.98205 15.2822 4.34283C14.6455 3.70618 13.6071 3.25 12 3.25C10.3929 3.25 9.35448 3.70618 8.71783 4.34283Z" fill="#6E7191"/>
</g>
<defs>
<clipPath id="clip0_132_151">
<rect width="24" height="24" fill="white" transform="translate(0 0.5)"/>
</clipPath>
</defs>
</svg>
