<svg width="45" height="44" viewBox="0 0 45 44" fill="none" xmlns="http://www.w3.org/2000/svg">
<rect x="0.5" width="44" height="44" rx="22" fill="#FBE216" fill-opacity="0.19"/>
<g clip-path="url(#clip0_152_4753)">
<path opacity="0.32" d="M12.5 19V23V23C12.5 25.2222 12.5 29.7778 18.0556 29.7778C20.2778 29.7778 20.2778 32 22.5 32C24.7222 32 24.7222 29.7778 26.9444 29.7778C32.5 29.7778 32.5 25.2222 32.5 23L32.5 19C32.5 16.5 32.5 12 24.5 12H20.5C12.5 12 12.5 16.5 12.5 19Z" fill="#222C60"/>
<path fill-rule="evenodd" clip-rule="evenodd" d="M18.75 19C18.75 18.5858 19.0858 18.25 19.5 18.25H25.5C25.9142 18.25 26.25 18.5858 26.25 19C26.25 19.4142 25.9142 19.75 25.5 19.75H19.5C19.0858 19.75 18.75 19.4142 18.75 19Z" fill="#222C60"/>
<path fill-rule="evenodd" clip-rule="evenodd" d="M18.75 23C18.75 22.5858 19.0858 22.25 19.5 22.25H25.5C25.9142 22.25 26.25 22.5858 26.25 23C26.25 23.4142 25.9142 23.75 25.5 23.75H19.5C19.0858 23.75 18.75 23.4142 18.75 23Z" fill="#848484"/>
</g>
<defs>
<clipPath id="clip0_152_4753">
<rect width="24" height="24" fill="white" transform="translate(10.5 10)"/>
</clipPath>
</defs>
</svg>
