<svg width="45" height="44" viewBox="0 0 45 44" fill="none" xmlns="http://www.w3.org/2000/svg">
<rect x="0.5" width="44" height="44" rx="22" fill="#FBE216" fill-opacity="0.19"/>
<g clip-path="url(#clip0_152_4753)">
<path opacity="0.32" d="M15.4637 17.4228C16.0496 14.3926 18.3283 11.25 22.495 11.25C26.6617 11.25 28.8872 14.1372 29.5262 17.4228C30.1156 20.4531 31.87 20.625 31.87 23.3712C31.87 27.9167 25.62 27.9167 22.495 27.9167C19.37 27.9167 13.12 27.9167 13.12 23.3712C13.12 20.625 14.8779 20.4531 15.4637 17.4228Z" fill="#222C60"/>
<path fill-rule="evenodd" clip-rule="evenodd" d="M18.7996 31.2317C18.9477 30.8449 19.3814 30.6514 19.7682 30.7996C21.3288 31.3971 23.1542 31.4197 25.2848 30.7815C25.6816 30.6626 26.0996 30.888 26.2185 31.2848C26.3373 31.6816 26.112 32.0996 25.7152 32.2184C23.3458 32.9281 21.1705 32.9428 19.2318 32.2004C18.845 32.0522 18.6515 31.6186 18.7996 31.2317Z" fill="#848484"/>
</g>
<defs>
<clipPath id="clip0_152_4753">
<rect width="24" height="24" fill="white" transform="translate(10.5 10)"/>
</clipPath>
</defs>
</svg>
