<svg width="36" height="36" viewBox="0 0 36 36" fill="none" xmlns="http://www.w3.org/2000/svg">
<rect width="36" height="36" rx="18" fill="#FBBC05"/>
<g clip-path="url(#clip0_464_2588)">
<path fill-rule="evenodd" clip-rule="evenodd" d="M9.50452 11.4439C10.1756 10.7311 11.159 10.0749 12.2603 9.53084L12.8641 9.89312L12.8762 9.90037L12.8886 9.90716L21.992 14.9141C20.6569 15.686 19.2462 16.25 18 16.25C16.2456 16.25 14.1652 15.1323 12.4286 13.89C11.5813 13.2839 10.8538 12.6762 10.3379 12.2196C10.0804 11.9917 9.87661 11.8024 9.73819 11.6709C9.669 11.6052 9.61621 11.5541 9.58125 11.5199L9.54239 11.4817L9.53335 11.4727L9.53149 11.4708L9.53032 11.4697L9.50452 11.4439ZM13.9897 8.80089L23.4278 13.9919C23.4759 13.958 23.5238 13.9241 23.5714 13.89C24.4187 13.2839 25.1462 12.6762 25.6621 12.2196C25.9196 11.9917 26.1234 11.8024 26.2618 11.6709C26.331 11.6052 26.3838 11.5541 26.4187 11.5199L26.4576 11.4817L26.4666 11.4727L26.4685 11.4708L26.4697 11.4697L26.5112 11.4281C24.6886 9.59176 20.5332 8 17.9623 8C16.8349 8 15.3979 8.29915 13.9897 8.80089Z" fill="#FBE216"/>
<path opacity="0.32" fill-rule="evenodd" clip-rule="evenodd" d="M18.75 27.9615V17.7021C20.0272 17.5431 21.3243 17.0056 22.5 16.351V18.25C22.5 18.6642 22.8358 19 23.25 19C23.6642 19 24 18.6642 24 18.25V15.4202C24.1522 15.3165 24.3004 15.2128 24.4441 15.11C25.3443 14.4661 26.1129 13.8238 26.6562 13.3429C26.9283 13.1021 27.145 12.9008 27.2946 12.7587L27.3542 12.7019C28.2487 15.1419 28.214 21.4135 27.2498 23.5555C26.3266 25.6067 21.7829 27.6579 18.75 27.9615Z" fill="#FBE216"/>
<path opacity="0.32" fill-rule="evenodd" clip-rule="evenodd" d="M17.25 17.7022C15.211 17.4484 13.1213 16.2298 11.5559 15.11C10.6557 14.4661 9.88712 13.8238 9.34377 13.3429C9.07168 13.1021 8.85501 12.9008 8.70542 12.7588L8.68141 12.736C7.77095 15.1889 7.73558 21.2744 8.80175 23.5556C9.72082 25.5976 14.1843 27.6395 17.25 27.9574V17.7022Z" fill="#FBE216"/>
<path fill-rule="evenodd" clip-rule="evenodd" d="M10.4692 18.3782C10.7187 18.0475 11.189 17.9817 11.5196 18.2312C12.0444 18.6271 12.4266 18.8686 12.7956 19.0399C13.1612 19.2096 13.5436 19.3243 14.0835 19.4356C14.4892 19.5192 14.7503 19.9158 14.6667 20.3215C14.5831 20.7272 14.1864 20.9883 13.7807 20.9047C13.1758 20.78 12.6716 20.6361 12.164 20.4005C11.6599 20.1665 11.1825 19.8559 10.6162 19.4286C10.2855 19.1791 10.2197 18.7088 10.4692 18.3782Z" fill="#FBE216"/>
</g>
<defs>
<clipPath id="clip0_464_2588">
<rect width="24" height="24" fill="white" transform="translate(6 6)"/>
</clipPath>
</defs>
</svg>
