<svg width="25" height="25" viewBox="0 0 25 25" fill="none" xmlns="http://www.w3.org/2000/svg">
<path opacity="0.32" d="M11.3571 2.3877H12.5C15 2.3877 16.5 3.3877 18 4.8877C19.5 6.3877 20.5 7.8877 20.5 10.3877V14.3877C20.5 17.8877 20.5 22.3877 13.5 22.3877H11.5C4.5 22.3877 4.5 17.8877 4.5 14.3877V10.3877C4.5 6.8877 4.5 2.3877 11.3571 2.3877Z" fill="#222C60"/>
<path fill-rule="evenodd" clip-rule="evenodd" d="M12.4869 5.63781C12.9011 5.63058 13.2427 5.96046 13.2499 6.37461C13.2648 7.22851 13.3604 8.02508 13.764 8.60949C14.1251 9.13235 14.8465 9.6377 16.5 9.6377C16.9142 9.6377 17.25 9.97348 17.25 10.3877C17.25 10.8019 16.9142 11.1377 16.5 11.1377C14.5149 11.1377 13.2514 10.507 12.5297 9.46185C11.8505 8.47824 11.7654 7.27482 11.7501 6.40079C11.7429 5.98664 12.0728 5.64504 12.4869 5.63781Z" fill="#222C60"/>
</svg>
