<svg width="65" height="64" viewBox="0 0 65 64" fill="none" xmlns="http://www.w3.org/2000/svg">
<rect x="0.5" width="64" height="64" rx="32" fill="#FBE216"/>
<g clip-path="url(#clip0_152_5569)">
<path opacity="0.32" d="M22.5 31V33C22.5 36.5 22.5 42 30.5 42H34.5C42.5 42 42.5 36.5 42.5 33L42.5 31C42.5 27.5 42.5 22 34.5 22H30.5C22.5 22 22.5 27.5 22.5 31Z" fill="#222C60"/>
<path fill-rule="evenodd" clip-rule="evenodd" d="M32.75 35C32.75 34.5858 33.0858 34.25 33.5 34.25H37.5C37.9142 34.25 38.25 34.5858 38.25 35C38.25 35.4142 37.9142 35.75 37.5 35.75H33.5C33.0858 35.75 32.75 35.4142 32.75 35Z" fill="#222C60"/>
<path fill-rule="evenodd" clip-rule="evenodd" d="M26.8992 28.5511C27.1471 28.2193 27.6171 28.1513 27.9489 28.3992L30.2594 30.1257L30.2749 30.1386C30.8619 30.6287 31.25 31.2692 31.25 32C31.25 32.7309 30.8619 33.3713 30.2749 33.8615L30.2594 33.8744L27.9489 35.6008C27.6171 35.8488 27.1471 35.7808 26.8992 35.449C26.6512 35.1172 26.7192 34.6472 27.0511 34.3992L29.3279 32.698C29.6698 32.4076 29.75 32.1599 29.75 32C29.75 31.8402 29.6698 31.5925 29.3279 31.3021L27.0511 29.6008C26.7192 29.3529 26.6512 28.8829 26.8992 28.5511Z" fill="#222C60"/>
</g>
<defs>
<clipPath id="clip0_152_5569">
<rect width="24" height="24" fill="white" transform="translate(20.5 20)"/>
</clipPath>
</defs>
</svg>
