<svg width="97" height="95" viewBox="0 0 97 95" fill="none" xmlns="http://www.w3.org/2000/svg">
<rect x="0.5" width="96" height="95" rx="47.5" fill="#F1FCFF"/>
<g clip-path="url(#clip0_15_10271)">
<path opacity="0.32" d="M28.9167 45.7593V49.4584C28.9167 54.3542 28.9167 63.1667 42.625 63.1667H54.375C68.0834 63.1667 68.0834 54.3542 68.0834 49.4584V45.5417C68.0834 40.6459 68.0834 31.8334 54.375 31.8334H42.625C28.9167 31.8334 28.9167 40.6459 28.9167 45.7593Z" fill="#B1BDFF"/>
<path d="M42.625 47.5C42.625 50.7447 45.2553 53.375 48.5 53.375C51.7447 53.375 54.375 50.7447 54.375 47.5C54.375 44.2553 51.7447 41.625 48.5 41.625C45.2553 41.625 42.625 44.2553 42.625 47.5Z" fill="#B1BDFF"/>
<path fill-rule="evenodd" clip-rule="evenodd" d="M36.75 42.1146C37.5612 42.1146 38.2188 42.7722 38.2188 43.5834L38.2188 51.4167C38.2188 52.2279 37.5612 52.8855 36.75 52.8855C35.9388 52.8855 35.2813 52.2279 35.2813 51.4167L35.2813 43.5834C35.2813 42.7722 35.9388 42.1146 36.75 42.1146Z" fill="#848484"/>
<path fill-rule="evenodd" clip-rule="evenodd" d="M60.25 42.1146C61.0612 42.1146 61.7187 42.7722 61.7187 43.5834L61.7187 51.4167C61.7187 52.2279 61.0612 52.8855 60.25 52.8855C59.4388 52.8855 58.7813 52.2279 58.7813 51.4167L58.7813 43.5834C58.7813 42.7722 59.4388 42.1146 60.25 42.1146Z" fill="#848484"/>
</g>
<defs>
<clipPath id="clip0_15_10271">
<rect width="47" height="47" fill="white" transform="translate(25 24)"/>
</clipPath>
</defs>
</svg>
