<svg width="65" height="64" viewBox="0 0 65 64" fill="none" xmlns="http://www.w3.org/2000/svg">
<rect x="0.5" width="64" height="64" rx="32" fill="#00BA88"/>
<g clip-path="url(#clip0_152_5588)">
<path opacity="0.32" d="M39.1937 24.45C40.1095 24.45 40.8824 24.6862 41.5039 25.1169C42.1216 25.5451 42.5449 26.1342 42.8176 26.7716C43.3542 28.0254 43.3407 29.5322 43.0523 30.7115L42.532 32.8392C42.1692 34.4279 41.7524 35.9059 40.9571 36.9797C40.1077 38.1266 38.8801 38.75 37.107 38.75H30.8468C29.0986 38.75 27.6643 38.1474 26.6405 37.0433C25.6298 35.9532 25.0818 34.4429 24.9497 32.7256L24.9496 32.7241L24.412 26.0603L24.3475 25.2603L24.2629 24.2113C24.1945 23.6828 24.1089 23.367 23.9276 23.1578C23.7773 22.9843 23.4355 22.75 22.5 22.75C22.0858 22.75 21.75 22.4142 21.75 22C21.75 21.5858 22.0858 21.25 22.5 21.25C23.6737 21.25 24.5184 21.549 25.0612 22.1755C25.5712 22.7641 25.6856 23.5105 25.753 24.0383L25.7891 24.45H39.1937Z" fill="#F5F6FF"/>
<path fill-rule="evenodd" clip-rule="evenodd" d="M31 29.75C31.4142 29.75 31.75 30.0858 31.75 30.5L31.75 32.5C31.75 32.9142 31.4142 33.25 31 33.25C30.5858 33.25 30.25 32.9142 30.25 32.5L30.25 30.5C30.25 30.0858 30.5858 29.75 31 29.75Z" fill="#F5F6FF"/>
<path fill-rule="evenodd" clip-rule="evenodd" d="M34 29.75C34.4142 29.75 34.75 30.0858 34.75 30.5L34.75 32.5C34.75 32.9142 34.4142 33.25 34 33.25C33.5858 33.25 33.25 32.9142 33.25 32.5L33.25 30.5C33.25 30.0858 33.5858 29.75 34 29.75Z" fill="#D9DBE9"/>
<path fill-rule="evenodd" clip-rule="evenodd" d="M37 29.75C37.4142 29.75 37.75 30.0858 37.75 30.5L37.75 32.5C37.75 32.9142 37.4142 33.25 37 33.25C36.5858 33.25 36.25 32.9142 36.25 32.5L36.25 30.5C36.25 30.0858 36.5858 29.75 37 29.75Z" fill="#D9DBE9"/>
<path fill-rule="evenodd" clip-rule="evenodd" d="M29.5 43C28.9477 43 28.5 42.5523 28.5 42L28.5 41.999C28.5 41.4467 28.9477 40.999 29.5 40.999C30.0523 40.999 30.5 41.4467 30.5 41.999L30.5 42C30.5 42.5523 30.0523 43 29.5 43Z" fill="#D9DBE9"/>
<path fill-rule="evenodd" clip-rule="evenodd" d="M37.5 43C36.9477 43 36.5 42.5523 36.5 42L36.5 41.999C36.5 41.4467 36.9477 40.999 37.5 40.999C38.0523 40.999 38.5 41.4467 38.5 41.999L38.5 42C38.5 42.5523 38.0523 43 37.5 43Z" fill="#D9DBE9"/>
</g>
<defs>
<clipPath id="clip0_152_5588">
<rect width="24" height="24" fill="white" transform="translate(20.5 20)"/>
</clipPath>
</defs>
</svg>
