<svg width="25" height="24" viewBox="0 0 25 24" fill="none" xmlns="http://www.w3.org/2000/svg">
<path opacity="0.32" fill-rule="evenodd" clip-rule="evenodd" d="M4.54395 15.375C4.64999 17.4821 5.07414 22.75 11.4364 22.75H13.5571C19.9194 22.75 20.3435 17.4821 20.4496 15.375L20.86 8.85008C14.5144 7.71899 10.6015 7.71388 4.14001 8.85133C4.27392 10.8896 4.4754 14.0128 4.54395 15.375Z" fill="#ED2E7E"/>
<path fill-rule="evenodd" clip-rule="evenodd" d="M10.5 11.25C10.9142 11.25 11.25 11.5858 11.25 12L11.25 16C11.25 16.4142 10.9142 16.75 10.5 16.75C10.0858 16.75 9.75 16.4142 9.75 16L9.75 12C9.75 11.5858 10.0858 11.25 10.5 11.25Z" fill="#ED2E7E"/>
<path fill-rule="evenodd" clip-rule="evenodd" d="M14.5 11.25C14.9142 11.25 15.25 11.5858 15.25 12V16C15.25 16.4142 14.9142 16.75 14.5 16.75C14.0858 16.75 13.75 16.4142 13.75 16V12C13.75 11.5858 14.0858 11.25 14.5 11.25Z" fill="#ED2E7E"/>
<path fill-rule="evenodd" clip-rule="evenodd" d="M7.77969 5.55932C6.42112 5.72618 4.97196 5.96062 3.36166 6.26287C2.95455 6.33928 2.68647 6.73125 2.76289 7.13836C2.8393 7.54546 3.23127 7.81354 3.63837 7.73713C10.6688 6.41752 14.4598 6.42451 21.3599 7.73679C21.7668 7.81418 22.1594 7.54705 22.2368 7.14013C22.3142 6.73321 22.0471 6.3406 21.6401 6.26321C20.0312 5.95722 18.5825 5.72037 17.2196 5.55289C17.2094 5.46302 17.1957 5.36187 17.1773 5.25169C17.1066 4.82757 16.9638 4.25062 16.6708 3.66459C16.3763 3.07562 15.9228 2.46383 15.2285 2.00096C14.5295 1.53497 13.6312 1.25 12.5 1.25C11.3688 1.25 10.4705 1.53497 9.77152 2.00096C9.07722 2.46383 8.62371 3.07562 8.32922 3.66459C8.0362 4.25062 7.89342 4.82757 7.82273 5.25169C7.80393 5.36451 7.79 5.46786 7.77969 5.55932Z" fill="#ED2E7E"/>
</svg>
