<svg width="24" height="24" viewBox="0 0 24 24" fill="none" xmlns="http://www.w3.org/2000/svg">
<g clip-path="url(#clip0_132_37)">
<path d="M6 8C6 11.3137 8.68629 14 12 14C15.3137 14 18 11.3137 18 8C18 4.68629 15.3137 2 12 2C8.68629 2 6 4.68629 6 8Z" fill="#6E7191"/>
<path opacity="0.32" fill-rule="evenodd" clip-rule="evenodd" d="M8.66209 14.4044C9.65424 14.9436 10.7913 15.25 12 15.25C13.2178 15.25 14.363 14.939 15.3605 14.3921C17.9279 15.0699 19.3265 16.5298 20.0884 18.0001C21 20.0001 20 22.0001 17.9999 22.0001H5.99993C3.99985 22.0001 2.99998 20.0001 3.94438 18.0001C4.71575 16.5386 6.11695 15.0874 8.66209 14.4044Z" fill="#848484"/>
</g>
<defs>
<clipPath id="clip0_132_37">
<rect width="24" height="24" fill="white"/>
</clipPath>
</defs>
</svg>
