<svg width="41" height="41" viewBox="0 0 41 41" fill="none" xmlns="http://www.w3.org/2000/svg">
<rect x="0.5" y="0.5" width="40" height="40" rx="20" fill="#FFF7B3"/>
<g clip-path="url(#clip0_201_422)">
<path d="M11.5 17C11.5 19.4853 13.5147 21.5 16 21.5C18.4853 21.5 20.5 19.4853 20.5 17C20.5 14.5147 18.4853 12.5 16 12.5C13.5147 12.5 11.5 14.5147 11.5 17Z" fill="#222C60"/>
<path fill-rule="evenodd" clip-rule="evenodd" d="M21.3389 19.6169C21.7606 18.8387 22.0001 17.9473 22.0001 17C22.0001 16.0527 21.7606 15.1613 21.3389 14.3831C21.5796 14.0469 21.8655 13.7452 22.1877 13.487C22.3647 13.3451 22.5527 13.2163 22.7502 13.102C23.4121 12.7191 24.1805 12.5 25.0002 12.5C27.4854 12.5 29.5002 14.5147 29.5002 17C29.5002 19.4853 27.4854 21.5 25.0002 21.5C24.1805 21.5 23.4121 21.2809 22.7502 20.898C22.5527 20.7837 22.3647 20.6549 22.1877 20.513C21.8655 20.2548 21.5796 19.9531 21.3389 19.6169Z" fill="#222C60"/>
<path opacity="0.32" fill-rule="evenodd" clip-rule="evenodd" d="M13.0017 21.9074C13.8747 22.4419 14.9014 22.75 16 22.75C17.1056 22.75 18.1383 22.438 19.0148 21.8972C20.1791 22.6019 20.8691 23.7076 21.2782 24.8197C21.8736 26.6598 21.2205 28.5 19.9142 28.5H12.0769C10.7707 28.5 10.1176 26.6598 10.7344 24.8197C11.1491 23.7129 11.8424 22.6125 13.0017 21.9074Z" fill="#222C60"/>
<path opacity="0.32" fill-rule="evenodd" clip-rule="evenodd" d="M22.0274 28.5H28.9144C30.2206 28.5 30.8737 26.6598 30.2783 24.8197C29.8693 23.7076 29.1792 22.6019 28.015 21.8972C27.1384 22.438 26.1057 22.75 25.0001 22.75C23.9015 22.75 22.8748 22.4419 22.0018 21.9074C21.7779 22.0436 21.5714 22.1945 21.3809 22.3574C21.8786 23.0237 22.2383 23.7762 22.4981 24.531C22.9804 26.1238 22.7418 27.7165 22.0274 28.5Z" fill="#848484"/>
</g>
<defs>
<clipPath id="clip0_201_422">
<rect width="24" height="24" fill="white" transform="translate(8.5 8.5)"/>
</clipPath>
</defs>
</svg>
