<svg width="24" height="24" viewBox="0 0 24 24" fill="none" xmlns="http://www.w3.org/2000/svg">
<path opacity="0.32" d="M2.0496 13.3281C2.34981 14.375 2.95753 15.754 4.66677 18.5625C6.376 21.371 7.80739 22.75 10.948 22.75H13.0418C16.1824 22.75 17.614 21.3711 19.323 18.5625C21.0321 15.7539 21.6419 14.375 21.9402 13.3281C22.5369 11.2344 22.4637 6 16.1824 6H7.80738C1.52617 6 1.44919 11.2344 2.0496 13.3281Z" fill="#6E7191"/>
<path fill-rule="evenodd" clip-rule="evenodd" d="M10 12.25C10.4142 12.25 10.75 12.5858 10.75 13V15C10.75 15.4142 10.4142 15.75 10 15.75C9.58579 15.75 9.25 15.4142 9.25 15V13C9.25 12.5858 9.58579 12.25 10 12.25Z" fill="#6E7191"/>
<path fill-rule="evenodd" clip-rule="evenodd" d="M14 12.25C14.4142 12.25 14.75 12.5858 14.75 13V15C14.75 15.4142 14.4142 15.75 14 15.75C13.5858 15.75 13.25 15.4142 13.25 15V13C13.25 12.5858 13.5858 12.25 14 12.25Z" fill="#6E7191"/>
<path fill-rule="evenodd" clip-rule="evenodd" d="M13.55 1.40004C13.8814 1.15152 14.3515 1.21867 14.6 1.55004L18.35 6.55004C18.5986 6.88142 18.5314 7.35152 18.2 7.60004C17.8687 7.84857 17.3986 7.78141 17.15 7.45004L13.4 2.45004C13.1515 2.11867 13.2187 1.64857 13.55 1.40004Z" fill="#6E7191"/>
<path fill-rule="evenodd" clip-rule="evenodd" d="M10.45 1.40004C10.7814 1.64857 10.8486 2.11867 10.6 2.45004L6.85004 7.45004C6.60152 7.78141 6.13141 7.84857 5.80004 7.60004C5.46867 7.35152 5.40152 6.88142 5.65004 6.55004L9.40004 1.55004C9.64857 1.21867 10.1187 1.15152 10.45 1.40004Z" fill="#6E7191"/>
</svg>
